HIERARCHY
ROOT Hips
{
	OFFSET -3.958830 18.904000 13.208200
	CHANNELS 6 Xposition Yposition Zposition Zrotation Yrotation Xrotation 
	JOINT LHipJoint
	{
		OFFSET 0.000000 0.000000 0.000000
		CHANNELS 3 Zrotation Yrotation Xrotation
		JOINT LeftUpLeg
		{
			OFFSET 1.800000 -1.400000 0.085000
			CHANNELS 3 Zrotation Yrotation Xrotation
			JOINT LeftLeg
			{
				OFFSET 2.215000 -6.000000 0.000000
				CHANNELS 3 Zrotation Yrotation Xrotation
				JOINT LeftFoot
				{
					OFFSET 2.500000 -6.900000 0.000000
					CHANNELS 3 Zrotation Yrotation Xrotation
					JOINT LeftToeBase
					{
						OFFSET 0.200000 -0.500000 1.950000
						CHANNELS 3 Zrotation Yrotation Xrotation
						End Site
						{
							OFFSET 0.000000 0.000000 0.000000
						}
					}
				}
			}
		}
	}
	JOINT RHipJoint
	{
		OFFSET 0.000000 0.000000 0.000000
		CHANNELS 3 Zrotation Yrotation Xrotation
		JOINT RightUpLeg
		{
			OFFSET -1.800000 -1.400000 0.085000
			CHANNELS 3 Zrotation Yrotation Xrotation
			JOINT RightLeg
			{
				OFFSET -2.215000 -6.000000 0.000000
				CHANNELS 3 Zrotation Yrotation Xrotation
				JOINT RightFoot
				{
					OFFSET -2.500000 -6.900000 0.000000
					CHANNELS 3 Zrotation Yrotation Xrotation
					JOINT RightToeBase
					{
						OFFSET -0.200000 -0.500000 1.950000
						CHANNELS 3 Zrotation Yrotation Xrotation
						End Site
						{
							OFFSET 0.000000 0.000000 0.000000
						}
					}
				}
			}
		}
	}
	JOINT LowerBack
	{
		OFFSET 0.000000 0.000000 0.000000
		CHANNELS 3 Zrotation Yrotation Xrotation
		JOINT Spine
		{
			OFFSET -0.087000 1.940000 -0.288900
			CHANNELS 3 Zrotation Yrotation Xrotation
			JOINT Spine1
			{
				OFFSET 0.000000 1.950000 0.060000
				CHANNELS 3 Zrotation Yrotation Xrotation
				JOINT Neck
				{
					OFFSET 0.000000 0.000000 0.000000
					CHANNELS 3 Zrotation Yrotation Xrotation
					JOINT Neck1
					{
						OFFSET 0.000000 1.600000 0.340000
						CHANNELS 3 Zrotation Yrotation Xrotation
						JOINT Head
						{
							OFFSET 0.000000 1.667000 -0.240000
							CHANNELS 3 Zrotation Yrotation Xrotation
							End Site
							{
								OFFSET 0.000000 0.000000 0.000000
							}
						}
					}
				}
				JOINT LeftShoulder
				{
					OFFSET 0.000000 0.000000 0.000000
					CHANNELS 3 Zrotation Yrotation Xrotation
					JOINT LeftArm
					{
						OFFSET 2.700000 1.550000 -0.730000
						CHANNELS 3 Zrotation Yrotation Xrotation
						JOINT LeftForeArm
						{
							OFFSET 5.450000 0.000000 0.000000
							CHANNELS 3 Zrotation Yrotation Xrotation
							JOINT LeftHand
							{
								OFFSET 3.450000 0.000000 0.000000
								CHANNELS 3 Zrotation Yrotation Xrotation
								JOINT LeftHandIndex1
								{
									OFFSET 0.750000 0.000000 0.000000
									CHANNELS 3 Zrotation Yrotation Xrotation
									End Site
									{
										OFFSET 0.000000 0.000000 0.000000
									}
								}
							}
						}
					}
				}
				JOINT RightShoulder
				{
					OFFSET 0.000000 0.000000 0.000000
					CHANNELS 3 Zrotation Yrotation Xrotation
					JOINT RightArm
					{
						OFFSET -2.700000 1.550000 -0.730000
						CHANNELS 3 Zrotation Yrotation Xrotation
						JOINT RightForeArm
						{
							OFFSET -5.450000 0.000000 0.000000
							CHANNELS 3 Zrotation Yrotation Xrotation
							JOINT RightHand
							{
								OFFSET -3.450000 0.000000 0.000000
								CHANNELS 3 Zrotation Yrotation Xrotation
								JOINT RightHandIndex1
								{
									OFFSET -0.750000 0.000000 0.000000
									CHANNELS 3 Zrotation Yrotation Xrotation
									End Site
									{
										OFFSET 0.000000 0.000000 0.000000
									}
								}
							}
						}
					}
				}
			}
		}
	}
}
MOTION
Frames: 14
Frame Time: 0.016667
0.147160 15.920340 -0.492270 -5.978265 -11.009442 -3.232797 -15.253550 13.119308 3.077764 0.936807 -0.810135 18.005555 -9.014437 14.126579 38.822749 1.014476 10.049036 1.498557 0.739600 0.135820 0.807660 18.480238 -8.531630 4.580828 0.656889 9.630537 -47.236975 11.332059 -10.589969 38.862448 -0.783024 -5.629390 2.405555 0.044990 0.116470 0.486040 -3.751783 -3.947666 -8.297212 23.714409 -14.202713 36.726526 -4.913522 -9.164539 5.452316 2.283500 -8.166332 -7.337926 -17.994873 6.894314 33.071548 -15.119140 8.740160 -12.800650 -14.178905 -0.354516 0.657407 -3.973876 -3.050371 -0.375896 135.496786 -78.847735 -133.196320 -3.885954 3.246314 0.689250 0.140380 0.107440 0.285360 9.770337 2.800822 3.336070 21.248334 -2.741895 -9.890838 20.026266 65.143864 10.339856 1.748663 -2.163677 -0.100280 0.026340 -0.263580 -0.357200 
0.144430 15.796540 -0.524130 -5.023606 -10.009795 -4.728082 -15.307227 13.140674 3.147881 0.097583 -0.689295 19.794610 -7.959709 13.913377 39.993798 1.169278 10.144106 1.467885 0.770550 0.188890 0.768480 18.437817 -8.424837 4.576642 -1.392063 8.990989 -47.893592 13.055823 -11.885690 40.957772 -0.915554 -6.317522 2.178268 0.036050 0.104240 0.517410 -3.618330 -4.219122 -8.382199 21.977855 -13.835934 38.127647 -3.646883 -9.598526 7.589140 2.031230 -7.638693 -8.659324 -17.200063 7.627203 34.012255 -12.540640 8.845940 -11.040820 -11.707565 -1.421207 2.334660 -0.401612 -0.384360 0.301343 117.728025 -76.717949 -111.642004 -3.942142 2.511096 0.639820 0.129260 0.119600 0.320850 8.002247 3.800779 3.953505 18.212320 -5.953208 -10.352236 24.627032 71.660802 13.733079 1.761532 -2.335060 -0.021400 -0.049010 -0.298560 -0.305720 
0.157210 15.577970 -0.535110 -4.161809 -8.278320 -5.803405 -15.264657 12.900719 3.133468 -0.676470 -0.629565 22.010349 -6.703309 13.575262 41.211571 1.215795 10.275559 1.421199 0.771160 0.182980 0.773600 18.522101 -8.301439 4.762229 -4.503068 8.451745 -50.440938 15.842657 -14.470107 44.741458 -1.167644 -7.542240 1.788258 0.021400 0.084160 0.514320 -3.824546 -3.978461 -8.487371 23.221484 -14.234637 37.117406 -4.723391 -10.541126 9.420279 1.628577 -6.296644 -8.462610 -15.284086 7.025608 37.733028 -12.275110 8.537620 -10.396850 -7.979414 -4.094637 -1.341380 8.905916 3.758998 -3.330327 82.155120 -89.887453 -75.778712 -3.222788 -0.711260 0.664710 0.116630 0.134840 0.316730 4.741551 4.196473 6.947166 14.159552 -13.155721 -8.118726 44.776946 82.611466 30.459142 1.909124 -2.384044 -0.017450 -0.054010 -0.299810 -0.313950 
0.151830 15.390050 -0.560140 -3.368998 -7.671748 -7.174253 -15.185205 12.529299 3.113759 -1.001908 0.047624 24.814172 -6.249355 13.491742 40.896491 1.247898 10.259530 1.398429 0.856230 0.271450 0.839100 18.640114 -8.258237 5.018455 -6.588869 8.827953 -52.776737 16.803233 -16.355120 49.374691 -1.461882 -8.610964 1.445424 0.048690 -0.010370 0.508270 -4.116583 -3.330770 -8.632917 23.721586 -14.630209 37.951176 -6.370639 -11.568910 11.469924 2.364154 -6.088478 -8.653195 -15.412480 7.078803 39.662616 -11.409880 7.630440 -13.306620 -5.735064 -5.286601 -0.036016 18.587318 11.404282 -0.796956 -134.196584 -89.890872 137.803067 -3.430788 3.306461 0.728140 0.029940 0.211580 0.325120 2.029850 5.113609 5.622870 10.302380 -19.641407 -10.929764 106.119517 77.578305 80.081307 3.070764 2.037503 0.019430 -0.063630 -0.353230 -0.322010 
0.134410 15.241610 -0.614780 -2.640895 -9.200067 -7.393026 -15.222492 12.213912 3.033820 -1.397372 1.038735 25.628960 -7.022239 14.175224 40.848961 1.352527 10.339395 1.375325 0.905420 0.355340 0.860810 18.689823 -7.930595 5.437486 -7.504604 11.012921 -56.472925 16.786065 -17.328386 54.109059 -1.691433 -9.510310 1.193761 0.076610 -0.034480 0.521950 -4.165255 -3.061701 -8.733390 23.110216 -13.965905 39.256248 -6.787420 -11.090331 12.718340 1.972743 -5.926436 -8.697796 -14.480040 6.974090 39.056320 -11.580850 7.854820 -13.681070 -4.055078 -4.127821 0.496269 23.951869 15.064664 2.466471 27.448783 -89.619014 -24.810096 -3.514804 3.750446 0.683470 0.028620 0.238280 0.351260 0.850803 4.314217 5.400191 5.883530 -22.510538 -9.260930 135.737621 73.258304 115.395249 1.835648 -1.669013 0.071290 -0.090590 -0.405270 -0.292130 
0.129560 15.143090 -0.636510 -2.950767 -10.243858 -5.256111 -15.195074 11.923290 2.863396 -1.565902 1.346219 23.961028 -7.596367 14.429314 40.599173 1.256376 10.322917 1.376426 0.867560 0.292660 0.853820 18.791056 -7.700729 5.882762 -7.659319 13.154364 -61.061266 16.311188 -17.628482 56.705711 -1.764355 -9.952888 1.056426 0.079940 0.008750 0.525620 -4.386349 -2.663253 -8.826692 24.566286 -13.822872 37.203804 -7.644385 -10.382427 13.148239 2.006705 -5.750006 -8.936635 -13.778790 6.545133 38.566810 -12.331160 7.909010 -12.489270 -3.175073 -2.276948 0.965169 25.077831 15.746880 5.036485 174.572142 -89.649038 -173.969903 -3.672089 3.862739 0.682270 0.076010 0.191410 0.325950 -0.215237 2.557431 5.507526 4.895997 -22.003158 -6.832556 144.958895 69.913143 123.145816 1.800088 -2.057342 0.020890 -0.073990 -0.360250 -0.320640 
0.122680 15.144780 -0.667630 -3.429389 -9.665361 -3.967075 -15.184035 11.980413 2.741181 -0.416622 0.989486 22.903484 -7.602787 14.238472 39.635070 1.221369 10.155596 1.441616 0.815650 0.210450 0.840420 18.804813 -7.653059 5.983878 -7.457408 13.476469 -62.241043 16.261247 -17.448475 56.012605 -1.683838 -9.821936 1.088471 0.038210 0.020700 0.514970 -4.409035 -2.721961 -8.801790 25.562906 -14.250032 36.491563 -7.541993 -10.331092 12.114687 1.993744 -5.813238 -9.043583 -13.872356 5.525663 37.674851 -13.146760 7.707920 -9.629720 -2.568405 -2.158236 0.139050 22.016367 16.401097 3.254286 -135.130562 -84.753437 134.324272 -3.562154 3.558415 0.642400 0.098610 0.139350 0.304990 -0.932479 2.484845 6.536540 7.868447 -21.470393 -6.853984 148.215385 67.617498 124.074442 1.815218 -2.180086 0.008380 -0.114760 -0.348470 -0.328750 
0.109460 15.229350 -0.701100 -4.655787 -8.366870 -2.260894 -15.121044 12.064748 2.570446 1.529023 0.012146 20.957619 -7.303603 13.645447 38.406777 1.073323 9.884327 1.511080 0.747460 0.131230 0.769050 18.836558 -7.849028 5.935923 -6.063877 13.128863 -62.188200 15.788476 -16.615677 53.051927 -1.493166 -9.218147 1.253758 0.008380 0.070800 0.540840 -4.519473 -2.502498 -8.672156 28.009888 -15.455679 34.775275 -8.457632 -10.516024 11.631696 2.227548 -6.192876 -9.443831 -14.215493 5.098558 36.259430 -13.859290 7.713840 -7.927810 -2.820211 -1.356658 1.066605 15.614799 13.948036 2.202725 -163.578972 -83.659039 161.586827 -3.667631 3.824598 0.615280 0.153770 0.084940 0.284570 -1.176997 1.914941 6.596604 13.310606 -17.410874 -7.888778 139.487772 66.146413 109.034653 1.814660 -2.011414 -0.008520 -0.139220 -0.282870 -0.330750 
0.099010 15.372860 -0.704640 -5.709719 -7.503096 -0.065550 -15.090304 12.306782 2.459536 2.846620 -0.727200 18.079938 -6.735168 12.832503 37.160049 0.972425 9.490356 1.679380 0.671300 0.053520 0.719830 18.818665 -8.030928 5.774507 -3.636009 12.741142 -60.768498 14.481891 -14.680273 48.236850 -1.186267 -8.017326 1.661728 -0.032450 0.145510 0.507630 -4.515493 -2.620158 -8.492579 29.820901 -15.940999 32.499627 -8.688385 -10.265036 10.243788 2.380480 -6.524021 -9.767345 -14.848722 4.965420 35.188971 -13.953790 7.899220 -5.667480 -3.078754 -1.499675 0.845281 5.373096 9.629915 -1.439679 -130.164993 -82.202012 123.871416 -3.582390 3.185949 0.574920 0.200560 0.035870 0.297230 -1.412575 2.182243 7.355031 20.728359 -13.899321 -9.042869 127.934209 65.487186 90.611109 1.960280 -1.789037 -0.046480 -0.094310 -0.267270 -0.314070 
0.074030 15.562140 -0.671370 -5.840425 -7.613406 2.307729 -15.081670 12.583040 2.429051 3.193248 -0.695154 15.191605 -6.234446 11.952178 35.267583 0.905876 8.971185 1.879468 0.571060 -0.039680 0.624270 18.773922 -8.187082 5.604405 -0.977720 12.629275 -58.498828 12.274645 -12.100219 42.788330 -0.834847 -6.563248 2.171137 -0.107030 0.224040 0.498210 -4.448523 -2.851039 -8.366116 30.312232 -15.293459 29.750131 -8.358308 -9.369496 9.055055 2.415502 -7.245655 -10.793275 -16.361614 5.087876 34.777780 -13.909480 7.732160 -2.295730 -3.865959 -0.192369 2.546176 -6.989817 4.134951 -0.815084 -93.690702 -83.712676 79.350852 -4.289424 1.215475 0.508950 0.249260 -0.014280 0.306370 -0.950354 2.005402 7.463120 28.693451 -9.712490 -8.971264 111.937614 65.417650 69.109608 2.215354 -1.749664 -0.044710 -0.084850 -0.231720 -0.269420 
0.054950 15.822340 -0.655680 -5.693874 -7.677648 4.098049 -15.086181 12.894646 2.436604 3.132727 -0.741440 11.927030 -5.633958 11.248957 34.686760 0.825386 8.560429 2.021756 0.517590 -0.096000 0.600650 18.705010 -8.376670 5.357954 1.569778 12.125664 -55.240712 9.771373 -9.422980 36.532530 -0.515240 -4.923858 2.763191 -0.160070 0.234160 0.444760 -4.319894 -3.134242 -8.211441 29.761603 -15.065393 28.176285 -8.076891 -9.062212 7.885904 2.962837 -8.069107 -11.714665 -18.690977 5.837430 34.997337 -13.712740 7.273860 -2.006140 -6.223580 -1.089447 4.245585 -18.537668 3.265869 -2.723853 -64.247336 -81.105584 47.693762 -3.848413 3.401811 0.527270 0.218980 -0.012190 0.299770 0.511251 3.800567 7.466931 37.592482 -5.263338 -9.317346 86.479939 65.362512 45.661576 2.224401 -2.008586 -0.063480 -0.028060 -0.217940 -0.259330 
0.024260 16.071760 -0.643900 -4.395010 -7.624264 5.857541 -15.095104 13.168633 2.479429 1.757383 -0.826786 7.600086 -4.422812 10.473367 36.060128 0.826736 8.203749 2.107478 0.529220 -0.068050 0.562620 18.639628 -8.507544 5.189714 2.387628 11.386431 -53.079687 7.666903 -7.476954 32.004346 -0.328753 -3.845068 3.143109 -0.186200 0.200650 0.435870 -4.190433 -3.470834 -8.170792 27.327002 -13.861004 26.885196 -6.827562 -8.322325 4.511342 2.778112 -8.212152 -11.701717 -19.635849 6.841745 36.294020 -11.471460 6.710480 -0.461520 -8.519231 -1.937287 4.576824 -30.141867 2.185996 -6.098179 -45.200963 -72.159047 26.882596 -3.558863 3.687091 0.511730 0.168930 0.007970 0.322020 3.141568 5.279372 6.789509 46.636755 -2.225935 -11.848912 55.810790 58.872262 23.894588 2.045912 -2.175810 -0.006950 -0.077300 -0.249090 -0.217990 
-0.012770 16.301850 -0.623220 -2.726398 -7.279399 7.616078 -15.139232 13.373570 2.570451 0.155874 -1.668952 2.117664 -3.097022 10.137169 40.455506 0.887337 8.330617 2.021938 0.525800 -0.065720 0.547940 18.555144 -8.517738 5.104921 2.079155 10.861319 -52.068233 5.755644 -6.508541 31.103773 -0.269387 -3.505193 3.268326 -0.212380 0.168500 0.418160 -3.985731 -3.919418 -8.260024 23.683630 -12.306738 25.184533 -4.253684 -7.418892 0.986114 2.460771 -8.247790 -11.610316 -20.353454 7.708927 38.192108 -10.378660 6.499690 0.925260 -11.603999 -2.898104 4.815719 -40.281435 1.573267 -8.584083 -30.126528 -60.316731 12.364235 -3.451228 3.589115 0.505200 0.131760 0.019610 0.319040 6.900808 7.060194 6.077237 52.327159 0.371372 -13.243711 30.978370 47.531918 8.815389 2.102700 -1.902567 0.024720 -0.104540 -0.259400 -0.202750 
-0.058740 16.505180 -0.580860 0.443438 -6.718906 8.225291 -15.247759 13.464993 2.898428 -3.029381 -3.093403 -2.752404 -1.218619 9.801219 47.026916 0.953242 8.932435 1.768794 0.575830 -0.031170 0.581120 18.416191 -8.518508 4.929383 0.082524 9.803846 -51.226302 3.014475 -6.203428 35.269826 -0.392094 -4.022688 3.057794 -0.183730 0.112300 0.382740 -3.613310 -4.402405 -8.503063 17.196007 -10.174542 24.276823 -0.188550 -6.428488 -3.191042 1.552452 -8.428678 -10.958762 -21.752702 9.381885 41.576297 -8.062970 5.761460 -0.909460 -17.752935 -3.612597 4.272747 -46.818004 1.996580 -10.016573 -16.563540 -47.570130 3.205366 -3.387791 3.329381 0.617400 0.042900 0.065730 0.308600 15.154633 8.747857 5.051488 52.308867 1.643388 -11.757475 10.645456 32.462858 0.899934 2.195436 -1.514809 -0.002220 -0.067710 -0.259580 -0.234210 
